<svg width="80" height="108" viewBox="0 0 80 108" fill="none" xmlns="http://www.w3.org/2000/svg">
<g clip-path="url(#clip0)">
<path d="M39.8832 31.6973C39.281 32.7134 39.2804 33.9769 39.8816 34.9937L49.9162 51.9641C50.6588 53.2198 50.6588 54.7802 49.9162 56.0359L39.8816 73.0063C39.2804 74.0231 39.281 75.2866 39.8832 76.3027C41.1364 78.4175 44.1971 78.4175 45.4503 76.3027L57.4583 56.0392C58.2034 54.7818 58.2034 53.2182 57.4583 51.9608L45.4503 31.6973C44.1971 29.5825 41.1364 29.5825 39.8832 31.6973Z" fill="#A6A6A6"/>
</g>
<g clip-path="url(#clip1)">
<path d="M23.8832 31.6973C23.281 32.7134 23.2804 33.9769 23.8816 34.9937L33.9162 51.9641C34.6588 53.2198 34.6588 54.7802 33.9162 56.0359L23.8816 73.0063C23.2804 74.0231 23.281 75.2866 23.8832 76.3027C25.1364 78.4175 28.1971 78.4175 29.4503 76.3027L41.4583 56.0392C42.2034 54.7818 42.2034 53.2182 41.4583 51.9608L29.4503 31.6973C28.1971 29.5825 25.1364 29.5825 23.8832 31.6973Z" fill="#A6A6A6"/>
</g>
<defs>
<clipPath id="clip0">
<rect width="108" height="64" fill="white" transform="translate(80) rotate(90)"/>
</clipPath>
<clipPath id="clip1">
<rect width="108" height="64" fill="white" transform="translate(64) rotate(90)"/>
</clipPath>
</defs>
</svg>
